<?xml version="1.0" standalone="no"?>
<!DOCTYPE svg PUBLIC "-//W3C//DTD SVG 20010904//EN"
 "http://www.w3.org/TR/2001/REC-SVG-20010904/DTD/svg10.dtd">
<svg version="1.0" xmlns="http://www.w3.org/2000/svg"
 width="700.000000pt" height="700.000000pt" viewBox="0 0 700.000000 700.000000"
 preserveAspectRatio="xMidYMid meet">
<metadata>
Created by potrace 1.14, written by Peter Selinger 2001-2017
</metadata>
<g transform="translate(0.000000,700.000000) scale(0.100000,-0.100000)"
fill="#000000" stroke="none">
<path d="M3445 6982 c-42 -26 -55 -45 -62 -85 -15 -93 94 -166 175 -116 40 24
66 80 58 124 -14 72 -110 115 -171 77z"/>
<path d="M2487 6386 c-36 -25 -62 -84 -53 -121 4 -14 19 -40 35 -58 26 -28 36
-32 80 -32 41 0 55 5 80 29 102 98 -25 260 -142 182z"/>
<path d="M4404 6395 c-17 -7 -40 -26 -50 -41 -75 -111 62 -237 170 -157 42 31
54 103 24 150 -32 54 -88 72 -144 48z"/>
<path d="M2080 5689 c-60 -22 -190 -297 -231 -490 -9 -39 -14 -49 -27 -45 -58
18 -253 57 -312 62 -64 6 -72 5 -103 -19 -26 -19 -38 -40 -50 -84 -81 -289
-81 -697 0 -992 5 -21 -1 -19 -68 26 -113 77 -246 183 -328 263 -41 39 -84 75
-95 80 -31 11 -64 -5 -72 -35 -7 -28 16 -182 46 -313 28 -118 30 -113 -32 -96
-110 29 -189 80 -287 188 -23 25 -55 33 -77 18 -22 -14 -31 -48 -27 -102 8
-117 23 -296 27 -315 3 -18 8 -53 22 -155 12 -84 90 -376 131 -490 55 -152
142 -335 216 -452 l55 -87 -31 -7 c-114 -24 -497 -166 -659 -243 -69 -34 -89
-48 -102 -75 -37 -79 -13 -120 131 -223 113 -81 276 -183 292 -183 6 0 11 -4
11 -10 0 -5 5 -10 10 -10 6 0 57 -22 113 -50 154 -75 353 -142 487 -165 19 -3
48 -8 65 -11 32 -5 189 -14 268 -14 l49 0 -45 -53 c-145 -170 -270 -434 -313
-661 -28 -143 -18 -188 48 -222 33 -17 102 -16 288 7 374 44 692 137 966 281
4 2 16 -24 28 -58 82 -226 307 -487 611 -710 193 -142 369 -244 419 -244 52 0
317 166 506 317 99 79 267 243 333 326 69 86 137 200 173 289 17 43 36 78 40
77 5 -2 59 -26 119 -55 217 -103 532 -188 810 -219 28 -3 64 -7 80 -10 17 -2
72 -7 123 -11 88 -6 94 -5 132 20 64 42 67 70 25 258 -47 213 -160 444 -298
611 -22 26 -38 50 -35 52 2 2 65 7 139 9 151 6 198 11 284 32 33 8 70 17 83
20 66 14 265 93 392 156 149 74 403 237 477 305 76 71 65 161 -27 209 -153 81
-391 174 -591 233 -73 21 -127 41 -122 44 23 15 136 217 189 338 76 176 164
460 189 614 3 17 10 53 15 80 5 28 12 74 15 104 4 30 8 62 10 72 7 33 18 222
18 293 0 56 -3 72 -18 82 -34 25 -60 16 -116 -43 -66 -69 -136 -115 -217 -142
-80 -27 -94 -27 -88 2 68 324 75 381 51 407 -35 39 -70 26 -153 -52 -42 -40
-79 -75 -82 -78 -36 -39 -298 -230 -314 -230 -4 0 -1 26 8 65 34 148 49 284
50 445 0 83 -10 235 -18 275 -2 11 -7 40 -11 65 -4 25 -9 54 -12 65 -2 11 -7
34 -9 50 -11 63 -42 114 -79 132 -32 15 -45 16 -122 4 -76 -11 -225 -42 -274
-57 -13 -3 -20 10 -34 68 -24 100 -68 216 -121 323 -52 104 -74 130 -119 145
-41 13 -117 -10 -249 -77 -215 -108 -373 -249 -473 -422 -1 -2 -48 38 -105 89
-144 130 -293 247 -432 341 -107 73 -123 80 -154 75 -72 -11 -399 -253 -607
-448 -62 -57 -69 -61 -79 -44 -121 203 -337 372 -604 472 -67 26 -83 27 -122
13z"/>
<path d="M725 5446 c-82 -36 -96 -137 -27 -199 68 -62 192 -1 192 95 0 36 -37
88 -75 104 -42 17 -51 17 -90 0z"/>
<path d="M6173 5441 c-35 -22 -63 -67 -63 -101 0 -70 69 -127 139 -116 41 6
90 53 93 89 0 12 2 29 3 37 2 23 -23 68 -48 85 -39 25 -88 27 -124 6z"/>
</g>
</svg>
