<svg className="group" height="512" viewBox="0 0 58 59" width="512" xmlns="http://www.w3.org/2000/svg">
        <g id="008---Water-Lily" fill="none">
          <path id="Shape" d="m6.84 36.63c-2.18674591.5977898-4.31531514 1.3909831-6.36 2.37-.27082152.1686433-.44492011.456388-.46863352.7745428-.0237134.3181549.10580487.6285295.34863352.8354572 1.74 1.44 6.2 4.39 10.64 4.39h1.17c-1.7216241 1.928167-2.82580106 4.3280975-3.17 6.89-.03324963.2944681.06581687.5885171.27047789.8028319.20466103.2143149.49383511.3268197.78952211.3071681 2.1-.12 6.81-.65 10.12-2.62 1.07 4.15 6.66 7.58 8.34 8.5.2938054.1564448.6461946.1564448.94 0 1.68-.92 7.27-4.35 8.34-8.5 3.31 2 8 2.5 10.12 2.62.2990282.0259603.5939031-.0837704.8032162-.2988977.2093131-.2151274.3109254-.5128975.2767838-.8111023-.344794-2.5617298-1.4488942-4.9614934-3.17-6.89h1.17c4.48 0 8.92-3 10.64-4.41.2378156-.202856.3670956-.5052449.3494306-.8173263-.017665-.3120813-.1802426-.59795-.4394306-.7726737-2.0053496-1.0375566-4.1268912-1.8331347-6.32-2.37z" fill="#24ae5f" />
          <path id="Shape" d="m54.14 23.24c-.7017685.9860548-1.7956322 1.6204957-3 1.74.2689235-1.085118.4825322-2.1832006.64-3.29.0242402-.2137224-.0909203-.4189977-.2859493-.5097089-.1950291-.0907112-.4262168-.0465281-.5740507.1097089-1.1893058 1.2323509-2.5339301 2.3046887-4 3.19.7797521-2.8882982.7797521-5.9317018 0-8.82-.1500511-.4174466-.5571758-.6861489-1-.66-.9844715.1457938-1.9594952.3494802-2.92.61-.2937668-1.4516769-.8277702-2.8441414-1.58-4.12-.2418477-.4165086-.7462341-.6014502-1.2-.44-1.41.5-4.34 1.88-5.46 4.28-1.6076767-1.5509822-3.3550899-2.9502518-5.22-4.18-.3290494-.2111133-.7509506-.2111133-1.08 0-1.8656805 1.2366953-3.6160955 2.6390354-5.23 4.19-1.13-2.41-4.08-3.81-5.48-4.3-.4455149-.1523356-.936946.0267452-1.18.43-.7406111 1.2910803-1.2705991 2.692004-1.57 4.15-.953142-.263026-1.9216638-.4667496-2.9-.61-.4684284-.0660621-.9190631.2051532-1.08.65-.7816662 2.888044-.7816662 5.931956 0 8.82-1.46542378-.8862389-2.80993354-1.9584855-4-3.19-.14603539-.1653767-.38320246-.2154906-.58365648-.1233278-.20045403.0921627-.31680886.3048154-.28634352.5233278.1627102 1.1147424.38637879 2.219732.67 3.31-1.18435484-.1310253-2.25524757-.7648189-2.94-1.74-.137808-.1613842-.36247889-.2181947-.56043418-.141712s-.32606514.2695949-.31956582.481712c.17 6.13 2.14 12.76 7.1 16.4 7.83 5.72 14.84 2.73 14.94 2.73 2.653497.3748023 5.346503.3748023 8 0 1.1239677.4173052 2.30331.6666518 3.5.74 5.7536347.3701599 11.3027516-2.2011067 14.74-6.83 3.12-4.53 3.72-10.33 3.72-13.07.0037205-.2060913-.1219336-.3924761-.3143769-.4663207-.1924434-.0738446-.4105248-.0193582-.5456231.1363207z" fill="#e57e25" />
          <g fill="#f0c419">
            <circle className="origin-bottom duration-200 group-hover:-translate-y-[0.02rem]" id="Oval" cx="29" cy="1" r="1" />
            <circle className="origin-bottom duration-200 group-hover:-translate-y-[0.02rem]" id="Oval" cx="21" cy="6" r="1" />
            <circle className="origin-bottom duration-200 group-hover:-translate-y-[0.02rem]" id="Oval" cx="6" cy="14" r="1" />
            <circle className="origin-bottom duration-200 group-hover:-translate-y-[0.02rem]" id="Oval" cx="37" cy="6" r="1" />
            <circle className="origin-bottom duration-200 group-hover:-translate-y-[0.02rem]" id="Oval" cx="52" cy="14" r="1" />
          </g>
          <path id="Shape" d="m51 21.29c.1478339-.156237.3790216-.2004201.5740507-.1097089.195029.0907112.3101895.2959865.2859493.5097089-1.78 12.59-9.64 21.31-22.86 21.31 0 0 0-12 10-15 4.25-1.27 9-3.51 12-6.71z" fill="#f29c1f" />
          <path id="Shape" className="origin-bottom duration-200 group-hover:-rotate-2" d="m29 43c-13.23 0-21.08-8.8-22.83-21.31-.03046534-.2185124.08588949-.4311651.28634352-.5233278.20045402-.0921628.43762109-.0420489.58365648.1233278 3 3.22 7.72 5.44 12 6.71 9.96 3 9.96 15 9.96 15z" fill="#f29c1f" />
          <path id="Shape" className="origin-bottom duration-200 group-hover:-rotate-1" d="m20.55 18.29c-2.82 3.58-3.55 6.42-3.55 9.05-2.0961904-.736827-4.1076162-1.6956066-6-2.86-.7816662-2.888044-.7816662-5.931956 0-8.82.1579848-.452975.6153902-.729936 1.09-.66 2.69.39 6.4 1.44 8.46 3.29z" fill="#f3d55b" />
          <path id="Shape" className="origin-bottom duration-200 group-hover:-rotate-1" d="m23.23 15.35c-.9560974.9208908-1.8513184 1.9029615-2.68 2.94-1.6250571-1.2970225-3.522371-2.2097844-5.55-2.67.3035447-1.4551275.8368907-2.8526291 1.58-4.14.243054-.4032548.7344851-.5823356 1.18-.43 1.39.49 4.34 1.89 5.47 4.3z" fill="#f29c1f" />
          <path id="Shape" className="origin-bottom duration-200 group-hover:rotate-1" d="m47 24.48c-1.8864842 1.1752031-3.8991273 2.134563-6 2.86 0-2.65-.74-5.5-3.56-9.06 2.08-1.84 5.77-2.88 8.48-3.27.4684284-.0660621.9190631.2051532 1.08.65.7797521 2.8882982.7797521 5.9317018 0 8.82z" fill="#f3d55b" />
          <path id="Shape" className="origin-bottom duration-200 group-hover:rotate-1" d="m43 15.62c-2.0268204.4657858-3.9255113 1.3741523-5.56 2.66-.8258828-1.0394247-1.7212682-2.0216758-2.68-2.94 1.12-2.4 4.05-3.78 5.46-4.28.4537659-.1614502.9581523.0234914 1.2.44.7522298 1.2758586 1.2862332 2.6683231 1.58 4.12z" fill="#f29c1f" />
          <path id="Shape" className="duration-150 group-hover:-translate-y-[0.09rem] group-hover:-translate-x-[0.17rem] group-hover:scale-110" d="m41 27.34c-.63.23-1.3.45-2 .66-10 3-10 15-10 15s0-12-10-15c-.7-.21-1.37-.43-2-.66 0-6.56 6.05-12.66 11.46-16.18.3290494-.2111133.7509506-.2111133 1.08 0 2.9852129 1.9511335 5.650147 4.3529475 7.9 7.12 2.81 3.55 3.56 6.39 3.56 9.06z" fill="#f0c419" />
          <path id="Shape" d="m38 49c0 4.06-5 7.94-8.53 9.88-.2938054.1564448-.6461946.1564448-.94 0-1.68-.92-7.27-4.35-8.34-8.5-.4333505-2.3860802.0333987-4.8480931 1.31-6.91 1.1967293-.0730582 2.3761138-.3224138 3.5-.74 2.653497.3748023 5.346503.3748023 8 0 1.1239677.4173052 2.30331.6666518 3.5.74.9953162 1.6718938 1.5140564 3.5843162 1.5 5.53z" fill="#24ae5f" />
          <path id="Shape" d="m20.19 50.38c-3.31 2-8 2.5-10.12 2.62-.29736305.022784-.58937676-.088345-.79635623-.303062-.20697946-.214717-.30732116-.5106109-.27364377-.806938.34419894-2.5619025 1.4483759-4.961833 3.17-6.89.7625868-.9134795 1.6283484-1.7356174 2.58-2.45 2.1573084.7912151 4.4581088 1.1150315 6.75.95-1.269204 2.0536862-1.7356838 4.5035954-1.31 6.88z" fill="#4c8056" />
          <path id="Shape" d="m49 51.89c.0332496.2944681-.0658169.5885171-.2704779.8028319-.204661.2143149-.4938351.3268197-.7895221.3071681-2.1-.12-6.81-.65-10.12-2.62.4329486-2.3905436-.0374716-4.8566861-1.32-6.92 2.2946264.173679 4.5998123-.1468646 6.76-.94.9498311.7243343 1.812281 1.5565817 2.57 2.48 1.7211058 1.9285066 2.825206 4.3282702 3.17 6.89z" fill="#4c8056" />
        </g>
      </svg>