<?xml version="1.0" encoding="iso-8859-1"?>
<!-- Generator: Adobe Illustrator 19.0.0, SVG Export Plug-In . SVG Version: 6.00 Build 0)  -->
<svg version="1.1" id="Capa_1" fill="#869198" xmlns="http://www.w3.org/2000/svg" xmlns:xlink="http://www.w3.org/1999/xlink" x="0px" y="0px"
	 viewBox="0 0 512 512" style="enable-background:new 0 0 512 512;" xml:space="preserve">
<g>
	<g>
		<path d="M188.035,223.532v-12.087h0c0-18.235-12.993-33.49-30.206-36.998v-8.312h-15.103v8.312
			c-17.214,3.508-30.206,18.763-30.206,36.998v12.086c-14.624,15.745-22.655,36.107-22.655,57.711v88.787h7.552
			c15.698,0,30.001-8.704,37.273-22.421c2.928,4.801,6.147,9.447,9.668,13.894l5.92,7.479l5.92-7.479
			c3.521-4.447,6.74-9.092,9.668-13.893c7.272,13.719,21.574,22.421,37.273,22.421h7.552v-88.787
			C210.69,259.639,202.659,239.278,188.035,223.532z M122.233,338.695c-3.272,7.48-9.669,12.953-17.265,15.158v-72.61
			c0-14.617,4.481-28.538,12.762-40.227l-1.902,12.226c-4.096,26.332-0.48,53.181,9.983,77.275L122.233,338.695z M150.277,343.987
			c-17.239-25.847-24.331-57.535-19.526-88.425l3.339-21.462h8.636v32.094h15.103V234.1h8.636l3.339,21.462
			C174.609,286.453,167.516,318.141,150.277,343.987z M172.932,218.997h-15.103v-7.552h-15.103v7.552h-15.103v-7.552
			c0-12.492,10.162-22.655,22.655-22.655c12.492,0,22.655,10.162,22.655,22.655V218.997z M195.587,353.854
			c-7.596-2.205-13.993-7.677-17.265-15.158l-3.578-8.18c10.464-24.095,14.08-50.943,9.983-77.275l-1.902-12.226
			c8.282,11.689,12.762,25.61,12.762,40.227V353.854z"/>
	</g>
</g>
<g>
	<g>
		<path d="M399.481,155.566v-12.086c0-18.235-12.993-33.49-30.206-36.998v-8.312h-15.103v8.312
			c-17.214,3.508-30.206,18.763-30.206,36.998v12.086c-14.624,15.746-22.655,36.108-22.655,57.711v88.787h7.552
			c15.697,0,30.001-8.703,37.273-22.422c2.928,4.801,6.147,9.447,9.668,13.894l5.92,7.479l5.92-7.479
			c3.521-4.447,6.74-9.092,9.668-13.894c7.272,13.719,21.576,22.422,37.273,22.422h7.552v-88.787
			C422.136,191.673,414.105,171.311,399.481,155.566z M333.678,270.731c-3.272,7.48-9.67,12.953-17.265,15.158v-72.61
			c0-14.616,4.481-28.536,12.762-40.226l-1.901,12.225c-4.096,26.332-0.48,53.181,9.984,77.275L333.678,270.731z M361.723,276.023
			c-17.239-25.847-24.331-57.535-19.525-88.425l3.339-21.462h8.635v32.094h15.103v-32.094h8.635l3.338,21.462
			C386.054,218.489,378.962,250.176,361.723,276.023z M384.378,151.032h-15.103v-7.552h-15.103v7.552h-15.103v-7.552
			c0-12.492,10.163-22.655,22.655-22.655s22.655,10.162,22.655,22.655V151.032z M407.034,285.889h-0.002
			c-7.596-2.205-13.993-7.677-17.265-15.158l-3.578-8.18c10.464-24.095,14.08-50.943,9.984-77.275l-1.901-12.225
			c8.281,11.689,12.762,25.609,12.762,40.226V285.889z"/>
	</g>
</g>
<g>
	<g>
		<path d="M368.099,48.558C362.574,20.904,338.116,0,308.861,0c-33.312,0-60.413,27.101-60.413,60.413v28.069
			c-11.079-12.567-27.278-20.517-45.31-20.517c-29.288,0-53.768,20.953-59.255,48.655l-21.81,23.628l11.098,10.244l9.554-10.351
			v10.892h15.103v-22.655c0-24.984,20.326-45.31,45.31-45.31c24.984,0,45.31,20.326,45.31,45.31v42.544l-18.769-11.262
			l-7.771,12.951l26.54,15.924v22.912V404.66l-17.315-17.315l-10.679,10.679l27.994,27.994V512h15.103v-33.12l20.444-20.443
			l-10.68-10.679l-9.763,9.764v-54.157l25.781-25.783h19.528v-15.103h-25.782l-19.528,19.527v-170.56v-63.125l20.652-22.373
			l-11.097-10.244l-9.554,10.351V60.413c0-24.984,20.326-45.31,45.31-45.31s45.31,20.326,45.31,45.31v22.655h15.103V71.093
			l9.763,9.763l10.68-10.679L368.099,48.558z"/>
	</g>
</g>
<g>
	<g>
		<rect x="356.054" y="228.432" width="13.21" height="15.103"/>
	</g>
</g>
<g>
	<g>
		<rect x="142.726" y="298.289" width="13.21" height="15.103"/>
	</g>
</g>
<g>
</g>
<g>
</g>
<g>
</g>
<g>
</g>
<g>
</g>
<g>
</g>
<g>
</g>
<g>
</g>
<g>
</g>
<g>
</g>
<g>
</g>
<g>
</g>
<g>
</g>
<g>
</g>
<g>
</g>
</svg>
