<?xml version="1.0" encoding="iso-8859-1"?>
<!-- Generator: Adobe Illustrator 19.0.0, SVG Export Plug-In . SVG Version: 6.00 Build 0)  -->
<svg version="1.1" id="Capa_1" xmlns="http://www.w3.org/2000/svg" xmlns:xlink="http://www.w3.org/1999/xlink" x="0px" y="0px"
	 viewBox="0 0 512.007 512.007" style="enable-background:new 0 0 512.007 512.007;" xml:space="preserve">
<g>
	<g>
		<path d="M511.808,156.429c-0.657-3.191-3.089-5.726-6.246-6.537c-1.57-0.401-38.511-10.24-33.929-42.317
			c0.401-2.842-0.777-5.658-2.918-7.561c-2.142-1.903-5.231-2.56-8.004-1.818c-0.538,0.162-13.329,3.328-31.778-15.13
			c-18.441-18.441-15.275-31.241-15.198-31.548c0.939-2.807,0.35-5.897-1.544-8.166c-1.894-2.278-4.821-3.43-7.757-2.987
			c-32.017,4.617-41.907-32.35-42.308-33.903c-0.794-3.166-3.328-5.606-6.519-6.281c-3.2-0.666-6.494,0.538-8.499,3.106
			c-43.093,55.407-8.166,126.899-6.656,129.92c0.418,0.819,0.956,1.57,1.604,2.219l34.526,34.526
			c0.649,0.657,1.399,1.195,2.219,1.604c1.877,0.93,30.208,14.788,64.691,14.788c20.983,0,44.254-5.137,65.212-21.444
			C511.278,162.906,512.473,159.621,511.808,156.429z M387.588,156.83l-32.418-32.427c-3.661-8.038-23.774-56.03-3.046-97.263
			c7.953,14.643,22.323,29.713,44.484,30.66c0.845,8.969,5.188,22.263,20.258,37.333c15.07,15.078,28.365,19.422,37.333,20.267
			c0.956,22.153,16.009,36.523,30.652,44.476C443.711,180.502,395.652,160.482,387.588,156.83z"/>
	</g>
</g>
<g>
	<g>
		<path d="M171.566,378.808c-0.418-0.819-0.956-1.57-1.604-2.219l-34.526-34.526c-0.648-0.657-1.399-1.195-2.219-1.604
			c-3.012-1.502-74.505-36.463-129.911,6.647c-2.577,1.997-3.772,5.282-3.106,8.474c0.657,3.191,3.089,5.726,6.246,6.537
			c1.57,0.401,38.511,10.24,33.929,42.317c-0.401,2.842,0.777,5.658,2.918,7.561c2.142,1.903,5.231,2.56,8.004,1.818
			c0.529-0.154,13.329-3.319,31.778,15.13c18.441,18.441,15.275,31.241,15.198,31.548c-0.939,2.807-0.341,5.897,1.545,8.166
			c1.886,2.27,4.813,3.388,7.757,2.987c32.043-4.497,41.916,32.35,42.308,33.903c0.794,3.166,3.328,5.606,6.519,6.281
			c0.589,0.12,1.178,0.179,1.766,0.179c2.594,0,5.094-1.195,6.741-3.277C208.004,453.321,173.077,381.829,171.566,378.808z
			 M159.884,484.86c-7.953-14.643-22.323-29.713-44.484-30.66c-0.845-8.969-5.188-22.263-20.258-37.325
			c-15.07-15.078-28.365-19.422-37.333-20.267c-0.956-22.153-16.009-36.523-30.652-44.476c41.139-20.625,89.199-0.597,97.263,3.046
			l32.418,32.418C160.499,395.635,180.612,443.627,159.884,484.86z"/>
	</g>
</g>
<g>
	<g>
		<path d="M380.667,149.91l-18.551-18.56c-29.952-29.952-78.677-29.943-108.621,0L131.349,253.487
			c-14.507,14.507-22.494,33.801-22.494,54.306c0,20.514,7.987,39.808,22.494,54.306l18.552,18.56
			c14.967,14.976,34.637,22.46,54.306,22.46c19.669,0,39.339-7.484,54.306-22.46l122.155-122.138
			c14.507-14.507,22.494-33.801,22.494-54.306C403.161,183.702,395.174,164.408,380.667,149.91z M368.584,246.456L246.446,368.593
			c-23.287,23.287-61.193,23.287-84.48,0l-18.551-18.56c-11.281-11.281-17.493-26.283-17.493-42.24
			c0-15.949,6.212-30.959,17.493-42.24l122.138-122.137c23.296-23.279,61.193-23.287,84.48,0l18.551,18.56
			c11.281,11.281,17.493,26.283,17.493,42.24C386.077,220.165,379.865,235.175,368.584,246.456z"/>
	</g>
</g>
<g>
	<g>
		<path d="M336.857,152.137c-16.026-16.034-42.095-16.026-58.223,0.12l-20.241,21.035c-3.268,3.388-3.166,8.798,0.23,12.066
			c1.647,1.587,3.78,2.381,5.914,2.381c2.236,0,4.471-0.879,6.153-2.62l20.13-20.915c9.361-9.37,24.602-9.37,33.971,0
			c3.328,3.337,8.73,3.337,12.066,0C340.194,160.866,340.194,155.473,336.857,152.137z"/>
	</g>
</g>
<g>
	<g>
		<path d="M388.646,88.819c-3.328-3.337-8.73-3.337-12.066,0c-1.075,1.067-26.172,26.624-19.601,59.511
			c0.811,4.062,4.378,6.861,8.363,6.861c0.555,0,1.118-0.051,1.673-0.171c4.625-0.93,7.62-5.419,6.699-10.044
			c-4.762-23.817,14.754-43.913,14.95-44.109C391.982,97.532,391.974,92.147,388.646,88.819z"/>
	</g>
</g>
<g>
	<g>
		<path d="M423.18,123.362c-3.328-3.336-8.73-3.336-12.066,0c-0.205,0.188-20.087,19.755-44.092,14.933
			c-4.625-0.956-9.122,2.065-10.044,6.69s2.074,9.122,6.699,10.044c3.797,0.759,7.492,1.101,11.068,1.101
			c27.375,0,47.479-19.755,48.435-20.702C426.508,132.092,426.508,126.699,423.18,123.362z"/>
	</g>
</g>
<g>
	<g>
		<path d="M155.037,363.661c-0.93-4.625-5.41-7.629-10.044-6.69c-4.625,0.93-7.62,5.419-6.699,10.044
			c4.762,23.817-14.754,43.913-14.95,44.109c-3.319,3.337-3.311,8.721,0.017,12.049c1.664,1.664,3.849,2.5,6.033,2.5
			c2.176,0,4.361-0.828,6.042-2.5C136.512,422.106,161.608,396.549,155.037,363.661z"/>
	</g>
</g>
<g>
	<g>
		<path d="M148.33,356.98c-32.879-6.571-58.428,18.534-59.503,19.601c-3.328,3.337-3.328,8.73,0,12.066
			c1.664,1.664,3.849,2.5,6.033,2.5c2.185,0,4.369-0.836,6.033-2.5c0.205-0.188,20.079-19.729,44.092-14.933
			c4.634,0.956,9.122-2.065,10.044-6.69C155.95,362.398,152.955,357.901,148.33,356.98z"/>
	</g>
</g>
<g>
	<g>
		<path d="M244.97,198.772c-3.328-3.337-8.738-3.337-12.066,0l-25.6,25.6c-3.336,3.337-3.336,8.73,0,12.066
			c1.664,1.664,3.849,2.5,6.033,2.5c2.184,0,4.369-0.836,6.033-2.5l25.6-25.6C248.307,207.501,248.307,202.108,244.97,198.772z"/>
	</g>
</g>
<g>
	<g>
		<path d="M253.384,326.661c-3.396-3.268-8.798-3.166-12.066,0.23l-20.13,20.915c-9.361,9.37-24.602,9.37-33.971,0
			c-3.328-3.337-8.73-3.337-12.066,0c-3.336,3.337-3.337,8.73,0,12.066c7.996,7.996,18.492,11.998,29.013,11.998
			c10.556,0,21.129-4.036,29.21-12.109l20.241-21.035C256.883,335.339,256.78,329.929,253.384,326.661z"/>
	</g>
</g>
<g>
	<g>
		<path d="M304.704,275.572c-3.328-3.337-8.738-3.337-12.066,0l-25.6,25.6c-3.336,3.337-3.336,8.73,0,12.066
			c1.664,1.664,3.849,2.5,6.033,2.5c2.185,0,4.369-0.836,6.033-2.5l25.6-25.6C308.04,284.301,308.04,278.908,304.704,275.572z"/>
	</g>
</g>
<g>
</g>
<g>
</g>
<g>
</g>
<g>
</g>
<g>
</g>
<g>
</g>
<g>
</g>
<g>
</g>
<g>
</g>
<g>
</g>
<g>
</g>
<g>
</g>
<g>
</g>
<g>
</g>
<g>
</g>
</svg>
